<svg width="69" height="14" viewBox="0 0 69 14" fill="none" xmlns="http://www.w3.org/2000/svg">
<path d="M28.5754 3.09447C27.3606 2.90121 26.3391 2.79077 25.4832 2.79077C24.8482 2.79077 24.2684 2.8736 23.7715 3.03925C23.026 3.28773 22.4739 3.70187 22.0873 4.30926C21.7008 4.91666 21.5352 5.68971 21.5352 6.62842C21.5352 7.23582 21.618 7.78799 21.756 8.25735C21.9769 8.97518 22.3358 9.49975 22.888 9.85867C23.4126 10.2176 24.1028 10.3832 24.9587 10.3832C25.5108 10.3832 26.063 10.3004 26.56 10.1071C26.5324 10.2728 26.5048 10.5489 26.4496 10.6869C26.3391 10.963 26.1459 11.1839 25.8698 11.3219C25.5937 11.46 25.2071 11.5428 24.7378 11.5428C23.8543 11.5428 23.026 11.4324 22.3358 11.1839C22.2806 11.1563 22.253 11.1839 22.1978 11.2115C22.1702 11.2391 22.1426 11.2943 22.1426 11.3219V12.8128C22.1426 12.868 22.1702 12.9233 22.253 12.9509C22.9708 13.1994 23.7991 13.3098 24.7102 13.3098C25.3728 13.3098 25.925 13.2546 26.4219 13.0889C27.1674 12.868 27.7472 12.5091 28.1061 11.9569C28.4926 11.4324 28.6859 10.6317 28.6859 9.77584V3.23251C28.6859 3.14969 28.6307 3.09447 28.5754 3.09447ZM23.7715 5.68971C23.8819 5.30319 24.0752 5.05471 24.3513 4.86144C24.6274 4.66818 24.9863 4.58535 25.428 4.58535C25.925 4.58535 26.2839 4.64057 26.56 4.7234V8.17452C26.0906 8.39539 25.6213 8.50583 25.1519 8.50583C24.9034 8.50583 24.6826 8.47822 24.4893 8.39539C24.2132 8.28496 24.02 8.09169 23.8819 7.78799C23.7439 7.4843 23.661 7.09777 23.661 6.60081C23.661 6.24189 23.6887 5.93819 23.7715 5.68971Z" fill="white"/>
<path d="M31.5569 5.30319C31.6673 5.0271 31.8054 4.83383 32.0263 4.7234C32.2471 4.58535 32.5232 4.53014 32.8545 4.53014C33.103 4.53014 33.2963 4.55775 33.4895 4.61296C33.738 4.69579 33.9313 4.83383 34.0417 5.05471C34.1521 5.24797 34.235 5.49645 34.235 5.80015H31.4465C31.4465 5.60689 31.5017 5.44123 31.5569 5.30319ZM34.9528 3.28773C34.4006 2.95643 33.7104 2.79077 32.8545 2.79077C32.2747 2.79077 31.7502 2.8736 31.3084 3.01164C30.6458 3.23251 30.1212 3.64665 29.7899 4.25405C29.4586 4.83383 29.293 5.57928 29.293 6.49037C29.293 7.12538 29.3758 7.67756 29.5414 8.17452C29.7899 8.89235 30.2593 9.44453 30.8943 9.83106C31.5293 10.19 32.3852 10.3832 33.3791 10.3832C34.3178 10.3832 34.9252 10.3004 35.5878 10.1624C35.6154 10.1624 35.643 10.1348 35.6706 10.1071C35.6982 10.0795 35.6983 10.0243 35.6983 10.0243V8.58865C35.6983 8.58865 35.6983 8.53344 35.643 8.47822C35.5878 8.423 35.505 8.45061 35.505 8.45061C34.7872 8.58865 34.2074 8.64387 33.4895 8.64387C32.7441 8.64387 32.2195 8.50583 31.8606 8.28496C31.6949 8.17452 31.5569 8.03647 31.4741 7.87082C31.4189 7.73278 31.3636 7.59473 31.3636 7.40147H36.0572C36.14 7.40147 36.1952 7.34625 36.1952 7.29103C36.2504 6.98733 36.2504 6.68364 36.2504 6.37994C36.2504 5.80015 36.1676 5.30319 36.0296 4.86144C35.8915 4.116 35.505 3.61904 34.9528 3.28773Z" fill="white"/>
<path d="M8.11704 0.885823C7.34399 0.388862 6.32245 0.140381 5.08005 0.140381C4.25178 0.140381 3.50634 0.250817 2.87133 0.471688C1.93263 0.802996 1.18719 1.38278 0.717833 2.21105C0.220872 3.01171 0 4.08846 0 5.38608C0.0552179 6.87697 0.496961 8.11937 1.21479 8.97525C1.90502 9.85874 2.87133 10.3557 3.94808 10.3557C4.38983 10.3557 4.74874 10.3005 5.05244 10.2177C5.49418 10.0796 5.77027 9.85874 5.93593 9.58265C6.10158 9.30656 6.1568 9.00286 6.18441 8.75438C6.18441 8.69916 6.1568 8.64394 6.12919 8.61633C6.10158 8.58873 6.04636 8.58873 5.99115 8.58873C5.96354 8.58873 5.90832 8.61633 5.8531 8.61633C5.65984 8.64394 5.35614 8.67155 5.08005 8.67155C4.58309 8.67155 4.16895 8.58873 3.81004 8.45068C3.25786 8.22981 2.87133 7.8985 2.59524 7.37393C2.31915 6.84936 2.18111 6.15914 2.18111 5.30326C2.18111 4.75108 2.23633 4.25412 2.37437 3.83998C2.56763 3.23258 2.87133 2.76323 3.31308 2.45953C3.75482 2.15584 4.33461 1.99018 5.08005 1.99018C5.5494 1.99018 5.99115 2.07301 6.32245 2.18344C6.84702 2.37671 7.23355 2.73562 7.50964 3.23259C7.78573 3.72955 7.92377 4.41977 7.92377 5.24804C7.92377 6.24196 7.73051 6.9874 7.3992 7.51198C7.37159 7.56719 7.37159 7.62241 7.3992 7.65002C7.42681 7.70524 7.48203 7.73285 7.53725 7.73285C7.53725 7.73285 7.67529 7.73285 7.84095 7.73285C8.44834 7.73285 8.89009 7.53958 9.2214 7.2911C9.60792 6.9874 9.82879 6.54566 9.96684 6.18674C10.1049 5.80022 10.1325 5.46891 10.1325 5.30326C10.1325 4.44738 10.0221 3.67433 9.82879 3.03932C9.46988 2.12823 8.9177 1.38278 8.11704 0.885823Z" fill="white"/>
<path d="M20.816 10.2177H19.5736C19.1594 10.2177 18.8281 9.88641 18.8281 9.47228V3.067C18.8281 2.98417 18.8833 2.92896 18.9662 2.92896H20.7884C20.8712 2.92896 20.9264 2.98417 20.9264 3.067V10.0521C20.954 10.1349 20.8988 10.2177 20.816 10.2177Z" fill="white"/>
<path d="M20.8157 2.18352H18.9935C18.9107 2.18352 18.8555 2.1283 18.8555 2.04547V0.582198C18.8555 0.499371 18.9107 0.444153 18.9935 0.444153H20.8157C20.8985 0.444153 20.9538 0.499371 20.9538 0.582198V2.04547C20.9538 2.1283 20.8985 2.18352 20.8157 2.18352Z" fill="white"/>
<path fill-rule="evenodd" clip-rule="evenodd" d="M53.203 3.34316L52.1263 7.84342L50.5526 3.39837C50.4145 3.03946 50.0832 2.79098 49.6967 2.79098H49.6139C49.2273 2.79098 48.8684 3.03946 48.758 3.39837L47.1843 7.84342L46.1075 3.34316C46.0247 3.01185 45.721 2.76337 45.3897 2.76337H45.2517H44.5614C44.4786 2.76337 44.3958 2.84619 44.4234 2.95663L46.218 10.0797C46.2456 10.135 46.3008 10.1902 46.356 10.1902H47.6812C47.7365 10.1902 47.7917 10.1626 47.8193 10.1074L49.6415 5.331L51.4637 10.1074C51.4913 10.1626 51.5465 10.1902 51.6017 10.1902H52.9269C52.9822 10.1902 53.065 10.135 53.065 10.0797L54.8872 2.95663C54.9148 2.8738 54.832 2.76337 54.7491 2.76337H54.0589H53.9209C53.5896 2.79098 53.2859 3.01185 53.203 3.34316Z" fill="white"/>
<path fill-rule="evenodd" clip-rule="evenodd" d="M9.16698 11.9293H7.84175C7.84175 11.9017 7.84175 11.9017 7.84175 11.8741C7.84175 11.8189 7.84175 11.7637 7.84175 11.736C7.84175 11.7084 7.86936 11.6808 7.86936 11.6808C7.89697 11.6532 7.89697 11.6532 7.92457 11.6532C7.95218 11.6532 7.97979 11.6256 8.03501 11.6256L9.24981 11.2943C9.44307 11.2391 9.58111 11.1563 9.71916 11.0734C9.88481 10.9078 9.99525 10.7145 10.0229 10.5213C10.0781 10.328 10.0781 10.1071 10.0781 9.88624C10.0781 9.83103 10.0781 9.77581 10.0781 9.7482C10.0781 9.58255 10.0505 9.41689 9.99525 9.27885C9.94003 9.1408 9.82959 9.00276 9.69155 8.89232H9.66394C9.49829 8.75428 9.30502 8.67145 9.11176 8.64384C8.9185 8.58862 8.69763 8.58862 8.47675 8.58862C8.3111 8.58862 8.17306 8.58862 8.03501 8.58862C7.64849 8.58862 7.31718 8.67145 7.04109 8.86471C6.90304 8.97515 6.79261 9.08558 6.73739 9.25124C6.65456 9.41689 6.62695 9.58255 6.62695 9.80342C6.62695 9.88624 6.65456 9.99668 6.68217 10.0519C6.73739 10.1623 6.84783 10.2728 6.95826 10.328C7.04109 10.3832 7.15152 10.3832 7.26196 10.4108C7.31718 10.4108 7.42761 10.4108 7.42761 10.4108H7.81414V10.2728C7.81414 10.2452 7.81414 10.2176 7.81414 10.1899C7.81414 10.0795 7.81414 9.96907 7.81414 9.91385C7.81414 9.83103 7.84175 9.77581 7.84175 9.7482C7.84175 9.72059 7.86936 9.69298 7.86936 9.66537C7.89697 9.63776 7.92457 9.61015 7.97979 9.61015C8.03501 9.58255 8.11784 9.58255 8.22827 9.58255C8.25588 9.58255 8.3111 9.58255 8.33871 9.58255C8.42154 9.58255 8.50436 9.58255 8.58719 9.58255C8.64241 9.58255 8.67002 9.61015 8.72523 9.61015C8.78045 9.63776 8.80806 9.66537 8.83567 9.69298C8.86328 9.7482 8.89089 9.80342 8.89089 9.94146C8.89089 9.96907 8.89089 9.96907 8.89089 9.99668C8.89089 10.0795 8.89089 10.1347 8.89089 10.1899C8.89089 10.2176 8.89089 10.2452 8.86328 10.2728C8.86328 10.3004 8.83567 10.328 8.80806 10.3556C8.78045 10.3832 8.69763 10.4108 8.6148 10.4384L7.3724 10.8249C7.23435 10.8526 7.12391 10.9078 7.01348 10.9906C6.87543 11.101 6.765 11.2667 6.70978 11.4323C6.65456 11.598 6.62695 11.7913 6.62695 11.9845V12.8404C6.62695 12.9232 6.68217 12.9784 6.765 12.9784H9.94003C10.0229 12.9784 10.0781 12.9232 10.0781 12.8404C10.0781 12.3158 9.69155 11.9293 9.16698 11.9293Z" fill="white"/>
<path fill-rule="evenodd" clip-rule="evenodd" d="M68.8014 4.83391C68.5805 4.14368 68.1664 3.61911 67.6142 3.2878C67.0344 2.92889 66.3166 2.76323 65.4331 2.76323C64.8533 2.76323 64.3288 2.84606 63.8042 3.03932V0.885823C63.8042 0.471688 63.4729 0.140381 63.0587 0.140381H62.3685C62.2857 0.140381 62.2305 0.195599 62.2305 0.278426V5.38608V9.91396C62.2305 9.96917 62.2857 10.052 62.3409 10.052C63.2244 10.2453 64.1907 10.3557 65.2398 10.3557C65.8472 10.3557 66.3994 10.2729 66.8688 10.1072C67.5866 9.85874 68.1112 9.41699 68.4701 8.8096C68.829 8.17459 68.9947 7.40154 68.9947 6.43523C69.0223 5.82783 68.9394 5.30326 68.8014 4.83391ZM63.8042 5.38608V4.5026C64.2735 4.28173 64.7981 4.17129 65.4331 4.17129C65.792 4.17129 66.0957 4.22651 66.3442 4.30933C66.7307 4.44738 67.0068 4.66825 67.2001 4.99956C67.3933 5.33087 67.5038 5.77261 67.5038 6.3524C67.5038 6.79414 67.4486 7.18067 67.3657 7.51198C67.2277 8.00894 66.9792 8.36785 66.6203 8.58873C66.2614 8.83721 65.8196 8.94764 65.2122 8.94764C64.6601 8.94764 64.2183 8.89242 63.8318 8.78199V5.38608H63.8042Z" fill="white"/>
<path fill-rule="evenodd" clip-rule="evenodd" d="M60.3533 3.23251C59.8287 2.92882 59.1661 2.79077 58.3931 2.79077C57.8133 2.79077 57.3163 2.8736 56.8746 3.01164C56.2119 3.23251 55.715 3.64665 55.3837 4.25405C55.0524 4.83383 54.8867 5.57928 54.8867 6.49037C54.8867 7.12538 54.9695 7.67756 55.1352 8.17452C55.3837 8.89235 55.8254 9.44453 56.4328 9.83106C57.0402 10.19 57.8409 10.3832 58.8072 10.3832C59.7459 10.3832 60.2981 10.3004 60.9607 10.1071C61.0159 10.0795 61.0711 10.0243 61.0711 9.9691V8.91996C61.0711 8.86474 61.0435 8.83713 61.0159 8.80953C60.9883 8.78192 60.9331 8.78192 60.8779 8.78192C60.2429 8.97518 59.7735 9.05801 58.9452 9.05801C58.5311 9.05801 58.1446 9.00279 57.8409 8.91996C57.3715 8.78192 57.0402 8.56104 56.8193 8.22974C56.6261 7.92604 56.5156 7.56712 56.488 7.09777H61.4577C61.5405 7.09777 61.5957 7.04255 61.5957 6.95972C61.6509 6.62842 61.6509 6.29711 61.6509 5.99341C61.6509 5.46884 61.5957 4.99949 61.4577 4.61296C61.2368 4.00557 60.8503 3.53621 60.3533 3.23251ZM56.6261 5.08232C56.7641 4.75101 56.9574 4.50253 57.2611 4.33687C57.5372 4.17122 57.9237 4.08839 58.3931 4.08839C58.6968 4.08839 58.9452 4.116 59.1385 4.19883C59.4698 4.30926 59.6907 4.50253 59.8563 4.75101C59.9944 4.99949 60.0772 5.30319 60.1048 5.68971H56.488C56.488 5.46884 56.5433 5.27558 56.6261 5.08232Z" fill="white"/>
<path d="M43.6504 4.39236C43.4847 3.86779 43.181 3.45365 42.7393 3.17756C42.2975 2.90147 41.7454 2.76343 41.0828 2.76343C40.3373 2.76343 39.5919 3.03952 38.9845 3.53648C38.9293 3.23278 38.6532 2.92908 38.2666 2.92908H37.0795C36.9966 2.92908 36.9414 2.9843 36.9414 3.06713V10.0522C36.9414 10.135 36.9966 10.1902 37.0795 10.1902H38.9016C38.9845 10.1902 39.0397 10.135 39.0397 10.0522V5.19302C39.5643 4.75127 40.1164 4.55801 40.641 4.55801C40.8343 4.55801 40.9999 4.58562 41.1104 4.61323C41.3036 4.66845 41.4417 4.77888 41.5521 4.94454C41.6349 5.11019 41.6901 5.33106 41.6901 5.60715V8.97545V9.4448C41.6901 9.85893 42.0215 10.1902 42.4356 10.1902H42.9326C43.181 10.1902 43.4019 10.1902 43.678 10.1902C43.7056 10.1902 43.7608 10.1626 43.7884 10.135C43.816 10.1074 43.8436 10.0798 43.8436 10.0246C43.8436 8.50609 43.8436 7.09804 43.8436 5.57954C43.816 5.16541 43.7608 4.75127 43.6504 4.39236Z" fill="white"/>
<path d="M18.223 3.15009C18.3058 3.06727 18.223 2.92922 18.1125 2.92922H16.0695C16.0143 2.92922 15.9866 2.95683 15.959 2.98444L14.4958 4.94467L13.1981 3.20531C13.0601 3.01205 12.8392 2.90161 12.5907 2.90161H12.5079H11.2655H10.8514C10.7409 2.90161 10.6581 3.03966 10.7409 3.12248L13.2534 6.5736L10.7133 9.96951C10.6305 10.0523 10.7133 10.1904 10.8238 10.1904H12.8668C12.9221 10.1904 12.9497 10.1628 12.9773 10.1352L14.4682 8.17492L15.7658 9.91429C15.9038 10.1076 16.1247 10.218 16.3732 10.218H16.7321H18.1125C18.223 10.218 18.3058 10.0799 18.223 9.99712L15.6829 6.60121L18.223 3.15009Z" fill="white"/>
</svg>
